<?xml version="1.0" encoding="utf-8"?>
<!-- Generator: Adobe Illustrator 15.1.0, SVG Export Plug-In . SVG Version: 6.00 Build 0)  -->
<!DOCTYPE svg PUBLIC "-//W3C//DTD SVG 1.1//EN" "http://www.w3.org/Graphics/SVG/1.1/DTD/svg11.dtd">
<svg version="1.1" id="Capa_1" xmlns="http://www.w3.org/2000/svg" xmlns:xlink="http://www.w3.org/1999/xlink" x="0px" y="0px"
	 width="369px" height="75px" viewBox="0 6 369 75" enable-background="new 0 6 369 75" xml:space="preserve">
<g>
	<g>
		<g>
			<path fill="#241E20" d="M32.122,73.167H11.487v-1.216c1.908,0,3.231-0.483,3.97-1.45s1.107-2.704,1.107-5.21V39.117
				c0-2.554-0.35-4.309-1.049-5.263c-0.7-0.955-2.042-1.433-4.027-1.433v-1.216h16.891c4.84,0,8.65,0.936,11.426,2.806
				c2.777,1.871,4.166,4.343,4.166,7.416c0,4.504-3.003,7.673-9.008,9.508v0.178c3.41,0.645,6.189,2.059,8.34,4.243
				c2.15,2.185,3.225,4.697,3.225,7.537c0,3.104-1.319,5.592-3.955,7.465C39.936,72.231,36.452,73.167,32.122,73.167z M22.48,32.814
				v17.78h4.63c3.24,0,5.817-0.793,7.73-2.379c1.913-1.585,2.87-3.726,2.87-6.421c0-2.838-0.938-5.044-2.813-6.619
				c-1.875-1.574-4.522-2.361-7.939-2.361H22.48z M26.726,52.204H22.48v12.307c0,2.719,0.318,4.573,0.956,5.562
				c0.638,0.99,1.862,1.485,3.673,1.485h3.71c2.602,0,4.725-0.817,6.37-2.451c1.645-1.633,2.467-3.822,2.467-6.564
				c0-3.125-1.18-5.628-3.538-7.513C33.758,53.146,30.627,52.204,26.726,52.204z"/>
		</g>
	</g>
	<g>
		<g>
			<path fill="#241E20" d="M287.785,64.01h1.335l-2.748,9.158h-32.445v-1.216c1.833,0,3.136-0.537,3.912-1.611
				s1.165-2.877,1.165-5.408V38.508c0-2.268-0.362-3.849-1.088-4.744c-0.726-0.895-2.055-1.343-3.989-1.343v-1.216h16.031v1.216
				c-1.781,0-3.06,0.513-3.835,1.538c-0.777,1.026-1.165,2.719-1.165,5.08v28.047c0,1.55,0.35,2.611,1.05,3.184
				c0.7,0.572,2.042,0.857,4.027,0.857h8.893c2.749,0,4.67-0.447,5.764-1.341C285.787,68.893,286.817,66.967,287.785,64.01z"/>
		</g>
	</g>
	<g>
		<g>
			<path fill="#241E20" d="M77.868,64.992v-20.9c0-2.033-0.279-3.449-0.838-4.248c-0.559-0.799-1.548-1.229-2.969-1.288v-1.006
				h12.608v1.006c-1.523,0-2.579,0.405-3.167,1.215s-0.883,2.252-0.883,4.326v21.66c0,2.035,0.29,3.462,0.868,4.282
				c0.579,0.819,1.64,1.229,3.183,1.229v1.006h-8.802V67.42c-3.35,3.809-7.32,5.713-11.909,5.713c-3.777,0-6.746-1.095-8.909-3.287
				c-2.163-2.19-3.243-5.082-3.243-8.674V44.092c0-2.072-0.28-3.513-0.838-4.322c-0.559-0.809-1.629-1.214-3.213-1.214v-1.006
				h12.914v1.006c-1.604,0-2.69,0.395-3.258,1.184c-0.569,0.79-0.853,2.221-0.853,4.293v17.585c0,2.842,0.802,5.077,2.406,6.706
				c1.604,1.628,3.837,2.442,6.701,2.442C71.909,70.766,75.31,68.841,77.868,64.992z"/>
		</g>
	</g>
	<g>
		<g>
			<path fill="#241E20" d="M121.888,37.046v10.361h-1.066c-0.854-3.216-2.219-5.585-4.097-7.105
				c-1.879-1.52-4.381-2.279-7.508-2.279c-4.061,0-7.279,1.421-9.654,4.263C97.188,45.129,96,48.918,96,53.655
				c0,5.191,1.253,9.37,3.761,12.537c2.507,3.168,5.792,4.751,9.853,4.751c5.624,0,9.776-2.545,12.457-7.637l0.944,0.858
				c-1.199,2.763-3.133,4.949-5.802,6.558c-2.67,1.608-5.711,2.413-9.122,2.413c-3.229,0-6.219-0.74-8.97-2.22
				c-2.751-1.48-4.873-3.518-6.365-6.113c-1.492-2.595-2.238-5.581-2.238-8.955c0-5.526,1.746-10.1,5.239-13.722
				c3.492-3.621,7.898-5.433,13.218-5.433c1.786,0,4.051,0.306,6.792,0.918c1.543,0.355,2.609,0.532,3.198,0.532
				c0.914,0,1.553-0.365,1.919-1.095H121.888z"/>
		</g>
	</g>
	<g>
		<g>
			<path fill="#241E20" d="M127.71,72.275v-1.007c1.563,0,2.629-0.41,3.198-1.229c0.568-0.82,0.853-2.247,0.853-4.282v-21.66
				c0-2.093-0.279-3.541-0.838-4.341c-0.559-0.8-1.629-1.2-3.213-1.2v-1.007h12.792v1.006c-1.503,0-2.543,0.415-3.122,1.243
				c-0.578,0.83-0.868,2.26-0.868,4.293v10.479l11.67-11.155c1.239-1.203,1.858-2.171,1.858-2.903c0-1.008-0.753-1.662-2.26-1.958
				v-1.006h13.493v1.006h-1.767c-1.077,0-2.31,0.351-3.7,1.051c-1.391,0.701-2.665,1.624-3.822,2.768l-11.112,10.679l14.767,14.544
				c1.462,1.473,2.589,2.428,3.381,2.865c0.792,0.438,1.898,0.707,3.319,0.806v1.006h-8.5l-17.326-17.022v10.5
				c0,2.037,0.278,3.465,0.837,4.286c0.558,0.821,1.609,1.231,3.152,1.231v1.007H127.71z"/>
		</g>
	</g>
	<g>
		<g>
			<path fill="#241E20" d="M188.536,50.694h1.075v8.437h-1.075c-0.39-1.479-0.86-2.407-1.413-2.782
				c-0.553-0.375-1.762-0.563-3.626-0.563h-8.941V68.22c0,0.868,0.2,1.479,0.599,1.834c0.399,0.355,1.08,0.533,2.043,0.533h6.299
				c2.253,0,3.81-0.119,4.67-0.355s1.587-0.676,2.181-1.317c0.594-0.642,1.229-1.683,1.905-3.124h1.075l-1.66,6.483h-25.964v-1.006
				c1.618,0,2.704-0.399,3.257-1.2c0.553-0.801,0.83-2.217,0.83-4.252V44.097c0-2.113-0.287-3.565-0.86-4.355
				c-0.574-0.79-1.649-1.186-3.226-1.186v-1.007h25.964v5.803h-0.676c-0.369-1.658-0.896-2.758-1.583-3.301
				c-0.686-0.542-2.177-0.813-4.471-0.813h-10.385v14.861h10.079c1.372,0,2.309-0.237,2.811-0.71
				C187.946,52.914,188.31,52.016,188.536,50.694z"/>
		</g>
	</g>
	<g>
		<g>
			<path fill="#241E20" d="M221.459,39.237h-5.639v26.698c0,2.094,0.273,3.506,0.823,4.237c0.549,0.731,1.616,1.096,3.2,1.096v1.007
				h-13.148v-1.007c1.635,0,2.746-0.419,3.333-1.259s0.881-2.257,0.881-4.252V39.237h-5.386c-2.577,0-4.451,0.384-5.624,1.154
				c-1.172,0.77-1.833,2.042-1.979,3.819h-1.109v-7.964h1.109c0.992,0.869,2.852,1.303,5.576,1.303h19.484
				c2.809,0,4.773-0.434,5.893-1.303h1.172v7.964h-0.729c-0.465-1.914-1.293-3.222-2.486-3.922
				C225.636,39.587,223.846,39.237,221.459,39.237z"/>
		</g>
	</g>
	<g>
		<g>
			<path fill="#241E20" d="M355.936,39.237h-5.64v26.698c0,2.094,0.274,3.506,0.823,4.237c0.55,0.731,1.616,1.096,3.2,1.096v1.007
				h-13.147v-1.007c1.635,0,2.746-0.419,3.333-1.259c0.586-0.839,0.88-2.257,0.88-4.252V39.237H340
				c-2.577,0-4.451,0.384-5.624,1.154c-1.172,0.77-1.832,2.042-1.979,3.819h-1.109v-7.964h1.109
				c0.992,0.869,2.852,1.303,5.576,1.303h19.485c2.808,0,4.773-0.434,5.893-1.303h1.172v7.964h-0.729
				c-0.464-1.914-1.294-3.222-2.486-3.922C360.112,39.587,358.322,39.237,355.936,39.237z"/>
		</g>
	</g>
	<g>
		<g>
			<path fill="#241E20" d="M302.972,37.549v1.006c-1.584,0-2.683,0.405-3.295,1.215s-0.919,2.252-0.919,4.326v21.66
				c0,2.074,0.306,3.512,0.919,4.312c0.612,0.801,1.711,1.2,3.295,1.2v1.007h-13.37v-1.007c1.626,0,2.735-0.395,3.327-1.186
				c0.591-0.79,0.887-2.232,0.887-4.326v-21.66c0-2.133-0.291-3.59-0.871-4.37c-0.581-0.781-1.695-1.171-3.342-1.171v-1.006H302.972
				z"/>
		</g>
	</g>
	<g>
		<g>
			<path fill="#241E20" d="M325.73,37.046h1.045v8.142h-1.109c-0.253-2.25-1.124-4.007-2.613-5.27
				c-1.489-1.263-3.364-1.895-5.624-1.895c-2.006,0-3.623,0.473-4.847,1.421c-1.225,0.948-1.837,2.21-1.837,3.79
				c0,1.46,0.507,2.793,1.521,3.997c1.014,1.204,3.21,2.752,6.589,4.648c3.929,2.19,6.568,4.105,7.92,5.743
				c1.352,1.638,2.028,3.513,2.028,5.625c0,2.724-1.034,5.053-3.101,6.986c-2.066,1.935-4.555,2.901-7.465,2.901
				c-1.687,0-3.838-0.434-6.453-1.303c-1.076-0.355-1.761-0.532-2.057-0.532c-0.611,0-1.085,0.444-1.423,1.332h-1.109v-9.385h1.109
				c0.021,2.586,0.922,4.658,2.703,6.217c1.781,1.561,3.863,2.339,6.245,2.339c2.255,0,4.063-0.563,5.423-1.689
				c1.359-1.125,2.04-2.626,2.04-4.503c0-1.401-0.559-2.745-1.676-4.028c-1.118-1.285-3.453-2.94-7.005-4.966
				c-2.897-1.671-4.831-2.991-5.801-3.958c-0.97-0.968-1.687-2.029-2.151-3.184c-0.464-1.156-0.696-2.424-0.696-3.807
				c0-2.666,0.935-4.828,2.804-6.487s4.303-2.488,7.302-2.488c1.647,0,3.442,0.306,5.386,0.918c0.908,0.277,1.542,0.415,1.9,0.415
				c0.295,0,0.497-0.06,0.603-0.178C325.487,37.727,325.604,37.46,325.73,37.046z"/>
		</g>
	</g>
	<g>
		<g>
			<path fill="#241E20" d="M57.345,15.929h-2.582v12.514c0,0.982,0.125,1.644,0.377,1.986c0.251,0.343,0.739,0.514,1.465,0.514
				v0.472h-6.019v-0.472c0.749,0,1.257-0.197,1.526-0.59s0.403-1.058,0.403-1.993V15.929h-2.465c-1.18,0-2.038,0.18-2.574,0.541
				s-0.838,0.958-0.906,1.79h-0.508v-3.733h0.508c0.454,0.407,1.305,0.61,2.552,0.61h8.919c1.285,0,2.184-0.203,2.697-0.61h0.537
				v3.733h-0.333c-0.213-0.897-0.592-1.51-1.139-1.839C59.256,16.093,58.437,15.929,57.345,15.929z"/>
			<path fill="#241E20" d="M76.56,28.356V23.63h-9.267v4.727c0,0.964,0.143,1.636,0.428,2.016s0.8,0.57,1.545,0.57v0.472h-6.149
				v-0.472c0.745,0,1.252-0.192,1.522-0.577c0.271-0.384,0.406-1.053,0.406-2.006V18.207c0-1-0.138-1.683-0.414-2.049
				c-0.275-0.366-0.781-0.549-1.515-0.549v-0.472h6.149v0.472c-0.745,0-1.26,0.197-1.545,0.59c-0.285,0.393-0.428,1.062-0.428,2.005
				v4.634h9.267v-4.634c0-0.999-0.133-1.681-0.399-2.046c-0.266-0.366-0.767-0.549-1.501-0.549v-0.472h6.091v0.472
				c-0.725,0-1.228,0.19-1.508,0.57s-0.421,1.055-0.421,2.027v10.153c0,0.972,0.141,1.646,0.421,2.021s0.783,0.563,1.508,0.563
				v0.472H74.66v-0.472c0.754,0,1.26-0.188,1.516-0.563S76.56,29.33,76.56,28.356z"/>
			<path fill="#241E20" d="M93.643,21.299h0.508v3.955h-0.508c-0.184-0.694-0.406-1.128-0.667-1.305
				c-0.261-0.176-0.832-0.264-1.711-0.264h-4.22v5.828c0,0.407,0.094,0.694,0.283,0.861c0.188,0.167,0.51,0.25,0.964,0.25h2.973
				c1.063,0,1.798-0.056,2.204-0.167c0.406-0.111,0.749-0.316,1.03-0.618c0.28-0.301,0.58-0.789,0.899-1.463h0.507l-0.783,3.039
				H82.868v-0.472c0.764,0,1.276-0.187,1.537-0.563c0.261-0.375,0.392-1.039,0.392-1.993v-10.18c0-0.991-0.136-1.671-0.406-2.042
				c-0.271-0.37-0.778-0.556-1.522-0.556v-0.472h12.254v2.72h-0.319c-0.174-0.777-0.423-1.292-0.747-1.547
				c-0.324-0.254-1.027-0.381-2.11-0.381h-4.902v6.966h4.756c0.648,0,1.09-0.111,1.327-0.333
				C93.365,22.34,93.536,21.918,93.643,21.299z"/>
		</g>
	</g>
</g>
</svg>
